<svg width="47" height="50" viewBox="0 0 47 50" fill="none" xmlns="http://www.w3.org/2000/svg">
<g id="Layer 2">
<g id="Group">
<path id="Vector" d="M46.69 16.4604C46.53 16.2704 46.29 16.1504 46.04 16.1504H36.88C37.77 14.5604 38.24 12.7804 38.24 10.9204C38.24 4.98039 33.41 0.150391 27.47 0.150391C21.53 0.150391 16.7 4.98039 16.7 10.9204C16.7 12.7804 17.17 14.5604 18.06 16.1504H9.51L8.5 12.3504C7.99 10.4004 6.23 9.05039 4.21 9.05039H0.85C0.38 9.05039 0 9.43039 0 9.90039C0 10.3704 0.38 10.7504 0.85 10.7504H4.21C5.45 10.7504 6.54 11.5904 6.85 12.7904L13.27 37.0604C13.78 39.0104 15.55 40.3604 17.56 40.3604H41.46C41.93 40.3604 42.31 39.9804 42.31 39.5104C42.31 39.0404 41.93 38.6604 41.46 38.6604H17.57C16.37 38.6604 15.33 37.8804 14.97 36.7404H23.04H31.93H42.56C42.97 36.7404 43.32 36.4504 43.4 36.0404L46.85 17.1504C46.9 16.9004 46.83 16.6504 46.67 16.4504L46.69 16.4604ZM44.19 22.4004H35.87L36.9 17.8504H45.03L44.2 22.4004H44.19ZM43.03 28.7504H34.43L35.48 24.1004H43.88L43.03 28.7504ZM23.73 35.0404L22.7 30.4504H32.31L31.28 35.0404H23.73ZM11.61 24.1004H19.52L20.57 28.7504H12.84L11.61 24.1004ZM13.29 30.4504H20.95L21.98 35.0404H14.5L13.29 30.4504ZM22.31 28.7504L21.26 24.1004H33.74L32.69 28.7504H22.31ZM19.85 17.8504H35.14L34.11 22.4004H20.87L19.84 17.8504H19.85ZM18.39 10.9204C18.39 5.92039 22.46 1.84039 27.47 1.84039C32.48 1.84039 36.55 5.91039 36.55 10.9204C36.55 12.8204 35.97 14.6204 34.87 16.1504H20.07C18.98 14.6104 18.4 12.8204 18.4 10.9204H18.39ZM18.11 17.8504L19.14 22.4004H11.16L9.96 17.8504H18.12H18.11ZM41.88 35.0404H33.02L34.05 30.4504H42.72L41.88 35.0404Z" fill="#ED7C2B"/>
<path id="Vector_2" d="M20.9202 40.8301C18.4302 40.8301 16.4102 42.8501 16.4102 45.3401C16.4102 47.8301 18.4302 49.8501 20.9202 49.8501C23.4102 49.8501 25.4302 47.8301 25.4302 45.3401C25.4302 42.8501 23.4102 40.8301 20.9202 40.8301ZM20.9202 48.1501C19.3702 48.1501 18.1102 46.8901 18.1102 45.3401C18.1102 43.7901 19.3702 42.5301 20.9202 42.5301C22.4702 42.5301 23.7302 43.7901 23.7302 45.3401C23.7302 46.8901 22.4702 48.1501 20.9202 48.1501Z" fill="#ED7C2B"/>
<path id="Vector_3" d="M35.2903 40.8301C32.8003 40.8301 30.7803 42.8501 30.7803 45.3401C30.7803 47.8301 32.8003 49.8501 35.2903 49.8501C37.7803 49.8501 39.8003 47.8301 39.8003 45.3401C39.8003 42.8501 37.7803 40.8301 35.2903 40.8301ZM35.2903 48.1501C33.7403 48.1501 32.4803 46.8901 32.4803 45.3401C32.4803 43.7901 33.7403 42.5301 35.2903 42.5301C36.8403 42.5301 38.1003 43.7901 38.1003 45.3401C38.1003 46.8901 36.8403 48.1501 35.2903 48.1501Z" fill="#ED7C2B"/>
<path id="Vector_4" d="M32.37 5.70039L25.76 12.3104L23.18 9.91039C22.84 9.59039 22.3 9.61039 21.98 9.95039C21.83 10.1104 21.75 10.3204 21.75 10.5304C21.75 10.7604 21.84 10.9904 22.02 11.1504L25.2 14.1104C25.36 14.2604 25.57 14.3404 25.78 14.3404C25.99 14.3404 26.22 14.2604 26.38 14.0904L33.57 6.91039C33.74 6.74039 33.82 6.53039 33.82 6.31039C33.82 6.09039 33.74 5.88039 33.57 5.71039C33.24 5.38039 32.7 5.38039 32.37 5.71039V5.70039Z" fill="#ED7C2B"/>
</g>
</g>
</svg>
