<svg width="48" height="48" viewBox="0 0 48 48" fill="none" xmlns="http://www.w3.org/2000/svg">
<g id="icon 3">
<g id="Clip path group">
<g id="Group">
<path id="Vector" d="M46.4548 23.0889C45.9912 23.0889 45.6164 23.4637 45.6164 23.9272C45.6164 36.039 35.7633 45.8922 23.6515 45.8922C11.5397 45.8922 1.67671 36.039 1.67671 23.9272C1.67671 23.4637 1.30192 23.0889 0.838356 23.0889C0.374794 23.0889 0 23.4637 0 23.9272C0 36.9661 10.6027 47.5689 23.6416 47.5689C36.6805 47.5689 47.2833 36.9661 47.2833 23.9272C47.2833 23.4637 46.9085 23.0889 46.4449 23.0889H46.4548Z" fill="#ED7C2B"/>
<path id="Vector_2" d="M23.154 41.8462C25.7776 41.8462 28.263 40.8993 29.7918 39.3015C30.1173 38.9662 30.0976 38.4336 29.7721 38.118C29.4367 37.7925 28.9041 37.8122 28.5885 38.1377C27.3655 39.41 25.3436 40.1695 23.1639 40.1695C20.9841 40.1695 18.9622 39.41 17.7392 38.1377C17.4236 37.8023 16.891 37.7925 16.5556 38.118C16.2203 38.4434 16.2104 38.9662 16.5359 39.3015C18.0647 40.8993 20.5502 41.8462 23.1737 41.8462H23.154Z" fill="#ED7C2B"/>
<path id="Vector_3" d="M19.8596 27.6041C19.5243 27.2786 18.9917 27.2885 18.6761 27.6337C17.8377 28.5115 16.4372 29.0343 14.9183 29.0343C13.3994 29.0343 11.9988 28.5115 11.1605 27.6337C10.835 27.2984 10.3122 27.2885 9.9769 27.6041C9.64156 27.9197 9.6317 28.4523 9.94731 28.7877C11.0914 29.9811 12.9555 30.7011 14.9183 30.7011C16.881 30.7011 18.7353 29.991 19.8892 28.7877C20.2147 28.4523 20.195 27.9197 19.8596 27.6041Z" fill="#ED7C2B"/>
<path id="Vector_4" d="M26.4583 27.6041C26.123 27.9197 26.1131 28.4523 26.4288 28.7877C27.5729 29.9811 29.437 30.7011 31.3997 30.7011C33.3625 30.7011 35.2167 29.991 36.3707 28.7877C36.6962 28.4523 36.6764 27.9197 36.3411 27.6041C36.0057 27.2786 35.4731 27.2885 35.1575 27.6337C34.3192 28.5115 32.9186 29.0343 31.3997 29.0343C29.8808 29.0343 28.4803 28.5115 27.6419 27.6337C27.3263 27.2984 26.7937 27.2885 26.4583 27.6041Z" fill="#ED7C2B"/>
<path id="Vector_5" d="M17.6997 7.74013C18.8339 8.34178 19.9485 8.60808 20.8953 8.79548C21.3096 8.87438 21.7435 8.93356 22.1775 8.98287C22.2268 9.41685 22.286 9.85082 22.3649 10.2749C22.5523 11.2218 22.8186 12.3363 23.4202 13.4705C23.5386 13.6974 23.7753 13.8355 24.0318 13.8355C24.2882 13.8355 24.5249 13.6974 24.6433 13.4705C25.235 12.3363 25.5112 11.2218 25.6986 10.2651C25.7775 9.85082 25.8367 9.41685 25.886 8.98287C26.32 8.93356 26.7539 8.87438 27.1682 8.79548C27.6909 8.69685 28.2235 8.56863 28.7561 8.40096C29.269 8.23328 29.8115 8.04589 30.3737 7.74013C30.5907 7.62178 30.7386 7.38507 30.7386 7.12863C30.7386 6.87219 30.6005 6.64534 30.3737 6.52698C29.8016 6.22123 29.2296 6.01411 28.7561 5.86616C28.2334 5.70835 27.7008 5.57027 27.1781 5.47164C26.7638 5.39274 26.3298 5.33356 25.8959 5.28424C25.8465 4.85027 25.7874 4.4163 25.7085 4.00205C25.6098 3.47931 25.4816 2.94671 25.3139 2.41411C25.1561 1.91109 24.9589 1.35876 24.6531 0.796572C24.5348 0.569723 24.2981 0.431641 24.0515 0.431641C23.795 0.431641 23.5682 0.569723 23.44 0.796572C23.1342 1.35876 22.937 1.91109 22.7791 2.42397C22.6115 2.95657 22.4833 3.48917 22.3945 4.00205C22.3156 4.4163 22.2564 4.85027 22.2071 5.28424C21.7633 5.33356 21.3293 5.39274 20.915 5.47164C19.9682 5.65904 18.8537 5.92534 17.7194 6.52698C17.4926 6.64534 17.3545 6.88205 17.3545 7.13849C17.3545 7.39493 17.4926 7.63164 17.7194 7.75L17.6997 7.74013ZM21.1518 6.82287C21.6942 6.72424 22.2761 6.64534 22.8679 6.60589C23.2131 6.58616 23.4893 6.31 23.509 5.96479C23.5485 5.37301 23.6274 4.80096 23.726 4.24863C23.8049 3.83438 23.9035 3.40041 24.0318 2.98616C24.1501 3.41027 24.2586 3.83438 24.3375 4.25849C24.4361 4.81082 24.515 5.38287 24.5545 5.97466C24.5742 6.31986 24.8504 6.58616 25.1956 6.61575C25.8071 6.6552 26.3693 6.73411 26.9118 6.83274C27.3359 6.91164 27.76 7.01027 28.1841 7.13849C27.76 7.25685 27.3359 7.36534 26.9118 7.44424C26.3594 7.54287 25.7874 7.62178 25.1956 7.66123C24.8504 7.68096 24.5742 7.95712 24.5545 8.30233C24.515 8.88424 24.446 9.46616 24.3375 10.0086C24.2586 10.413 24.16 10.847 24.0318 11.3007C23.9035 10.847 23.8049 10.4229 23.726 10.0185C23.6274 9.46616 23.5485 8.88424 23.509 8.30233C23.4893 7.95712 23.2131 7.68096 22.8679 7.66123C22.2761 7.62178 21.6942 7.54287 21.1616 7.44424C20.7572 7.36534 20.3233 7.26671 19.8696 7.13849C20.3233 7.01027 20.7572 6.91164 21.1518 6.83274V6.82287Z" fill="#ED7C2B"/>
<path id="Vector_6" d="M2.79648 14.3685C3.86168 14.9307 4.90716 15.1872 5.80469 15.3548C6.18935 15.4239 6.57401 15.4831 6.96853 15.5225C7.00798 15.917 7.06716 16.3116 7.1362 16.6962C7.31374 17.5839 7.56031 18.6294 8.1225 19.6946C8.24086 19.9214 8.47757 20.0595 8.73401 20.0595C8.99045 20.0595 9.22716 19.9214 9.34552 19.6946C9.90771 18.6294 10.1641 17.5839 10.3318 16.6863C10.4009 16.3017 10.46 15.917 10.4995 15.5126C10.894 15.4732 11.2885 15.414 11.6732 15.345C12.1663 15.2562 12.6595 15.128 13.1625 14.98C13.6162 14.8321 14.1488 14.6447 14.6913 14.3587C14.9181 14.2403 15.0562 14.0036 15.0562 13.7472C15.0562 13.4907 14.9181 13.2639 14.6913 13.1357C14.1587 12.8496 13.6162 12.6524 13.1625 12.5143C12.6694 12.3663 12.1762 12.2381 11.6831 12.1494C11.3083 12.0803 10.9137 12.0211 10.5094 11.9817C10.4699 11.5773 10.4107 11.1926 10.3417 10.808C10.2529 10.3148 10.1247 9.82169 9.97675 9.31867C9.8288 8.86498 9.64141 8.33237 9.35538 7.78991C9.1088 7.34607 8.3888 7.34607 8.14223 7.78991C7.8562 8.32251 7.65894 8.86498 7.52086 9.31867C7.37291 9.81183 7.24469 10.305 7.15593 10.7981C7.08689 11.1729 7.02771 11.5674 6.98826 11.962C6.59374 12.0014 6.19921 12.0606 5.80469 12.1296C4.91702 12.3072 3.87154 12.5537 2.80634 13.1159C2.57949 13.2343 2.44141 13.471 2.44141 13.7274C2.44141 13.9839 2.57949 14.2206 2.80634 14.3389L2.79648 14.3685ZM6.06113 13.5105C6.57401 13.4118 7.11648 13.3428 7.65894 13.3132C8.00415 13.2935 8.28031 13.0173 8.30004 12.6721C8.33949 12.1198 8.40853 11.5872 8.50716 11.0743C8.56634 10.7291 8.65511 10.3839 8.74387 10.0387C8.8425 10.3839 8.92141 10.7291 8.98059 11.0743C9.07922 11.5872 9.14826 12.1296 9.18771 12.682C9.20743 13.0272 9.4836 13.2935 9.8288 13.3231C10.3811 13.3625 10.9236 13.4316 11.4266 13.5302C11.7718 13.5894 12.117 13.6781 12.4622 13.7669C12.117 13.8655 11.7718 13.9444 11.4266 14.0036C10.9137 14.1022 10.3713 14.1713 9.8288 14.2107C9.4836 14.2305 9.20743 14.5066 9.18771 14.8518C9.14826 15.4042 9.07922 15.9368 8.99045 16.4496C8.92141 16.785 8.85237 17.14 8.74387 17.505C8.64524 17.14 8.56634 16.785 8.4973 16.4595C8.39867 15.9466 8.32963 15.4042 8.30004 14.8617C8.28031 14.5165 8.00415 14.2403 7.65894 14.2206C7.11648 14.1811 6.57401 14.1121 6.06113 14.0233C5.72579 13.9543 5.37072 13.8853 5.00579 13.7768C5.37072 13.6781 5.72579 13.5992 6.05127 13.5302L6.06113 13.5105Z" fill="#ED7C2B"/>
<path id="Vector_7" d="M33.3718 14.3684C34.437 14.9306 35.4923 15.187 36.38 15.3547C36.7548 15.4237 37.1493 15.4829 37.5438 15.5223C37.5833 15.9267 37.6424 16.3114 37.7115 16.696C37.889 17.5837 38.1356 18.6292 38.6978 19.6944C38.8161 19.9212 39.0529 20.0593 39.3093 20.0593C39.5657 20.0593 39.8025 19.9212 39.9208 19.6944C40.483 18.6292 40.7394 17.5837 40.9071 16.6862C40.9761 16.3015 41.0353 15.9169 41.0748 15.5125C41.4693 15.473 41.8638 15.4138 42.2386 15.3448C42.7318 15.256 43.2249 15.1278 43.7279 14.9799C44.2014 14.8221 44.7142 14.6445 45.2567 14.3585C45.4835 14.2401 45.6216 14.0034 45.6216 13.747C45.6216 13.4906 45.4835 13.2637 45.2567 13.1355C44.7241 12.8495 44.2112 12.6621 43.7279 12.5141C43.2348 12.3662 42.7416 12.238 42.2485 12.1492C41.8737 12.0801 41.4792 12.021 41.0748 11.9815C41.0353 11.5771 40.9761 11.1925 40.9071 10.8078C40.8183 10.3147 40.6901 9.82152 40.5422 9.3185C40.3942 8.8648 40.2068 8.3322 39.9208 7.78974C39.8025 7.56289 39.5657 7.4248 39.3192 7.4248C39.0627 7.4248 38.8359 7.56289 38.7175 7.78974C38.4315 8.32234 38.2441 8.83522 38.0863 9.3185C37.9383 9.81165 37.8101 10.3048 37.7214 10.798C37.6523 11.1826 37.5931 11.5673 37.5537 11.9717C37.1592 12.0111 36.7646 12.0703 36.3701 12.1393C35.4825 12.3169 34.437 12.5634 33.3718 13.1256C33.1449 13.244 33.0068 13.4807 33.0068 13.7371C33.0068 13.9936 33.1449 14.2303 33.3718 14.3486V14.3684ZM36.6364 13.5103C37.1493 13.4117 37.6918 13.3426 38.2342 13.313C38.5794 13.2933 38.8556 13.0171 38.8753 12.6719C38.9148 12.1097 38.9838 11.587 39.0825 11.0741C39.1416 10.7289 39.2304 10.3837 39.3192 10.0385C39.4178 10.3837 39.4967 10.7289 39.5559 11.0741C39.6545 11.587 39.7235 12.1295 39.763 12.6719C39.7827 13.0171 40.0589 13.2933 40.4041 13.313C40.9564 13.3525 41.4989 13.4215 42.0019 13.5201C42.3471 13.5793 42.6923 13.6681 43.0375 13.7569C42.6923 13.8555 42.3471 13.9344 42.0019 13.9936C41.489 14.0922 40.9466 14.1612 40.4041 14.2007C40.0589 14.2204 39.7827 14.4966 39.763 14.8418C39.7235 15.3941 39.6545 15.9267 39.5657 16.4396C39.4967 16.7749 39.4277 17.13 39.3192 17.4949C39.2205 17.13 39.1416 16.7749 39.0726 16.4495C38.974 15.9366 38.9049 15.4138 38.8753 14.8517C38.8556 14.5064 38.5794 14.2303 38.2342 14.2106C37.6819 14.1711 37.1493 14.1021 36.6364 14.0133C36.3011 13.9443 35.946 13.8752 35.5811 13.7667C35.946 13.6681 36.3011 13.5892 36.6266 13.5201L36.6364 13.5103Z" fill="#ED7C2B"/>
</g>
</g>
</g>
</svg>
