<?xml version="1.0" encoding="utf-8"?>
<svg xmlns="http://www.w3.org/2000/svg" width="500" zoomAndPan="magnify" viewBox="0 -5.191 1731.366 380.191" height="500" preserveAspectRatio="xMidYMid meet" version="1.0">
  <defs>
    <g/>
    <clipPath id="e1314db4f2">
      <path d="M 0 184 L 275 184 L 275 366.75 L 0 366.75 Z M 0 184 " clip-rule="nonzero"/>
    </clipPath>
    <clipPath id="6a82bac5ed">
      <path d="M 0 0 L 366.75 0 L 366.75 294 L 0 294 Z M 0 0 " clip-rule="nonzero"/>
    </clipPath>
  </defs>
  <g fill="#fbb040" fill-opacity="1">
    <g transform="translate(110.909895, 132.079782)">
      <g>
        <path d="M 5.609375 0 L 0.90625 0 L 0.90625 -3.046875 L 1.21875 -3.046875 L 1.21875 -2.1875 L 5.609375 -1.875 L 5.609375 -3.953125 L 3.28125 -3.65625 L 3.046875 -3.65625 C 2.597656 -3.65625 2.1875 -3.765625 1.8125 -3.984375 C 1.445312 -4.203125 1.15625 -4.492188 0.9375 -4.859375 C 0.71875 -5.234375 0.609375 -5.644531 0.609375 -6.09375 L 0.609375 -7.3125 C 0.609375 -7.75 0.71875 -8.148438 0.9375 -8.515625 C 1.15625 -8.890625 1.445312 -9.1875 1.8125 -9.40625 C 2.1875 -9.632812 2.597656 -9.75 3.046875 -9.75 L 7.71875 -9.75 L 7.71875 -6.703125 L 7.421875 -6.703125 L 7.421875 -7.546875 L 3.046875 -7.84375 L 3.046875 -5.78125 L 5.359375 -6.09375 L 5.609375 -6.09375 C 6.046875 -6.09375 6.445312 -5.976562 6.8125 -5.75 C 7.1875 -5.53125 7.484375 -5.234375 7.703125 -4.859375 C 7.921875 -4.492188 8.03125 -4.09375 8.03125 -3.65625 L 8.03125 -2.4375 C 8.03125 -1.988281 7.921875 -1.578125 7.703125 -1.203125 C 7.484375 -0.835938 7.1875 -0.546875 6.8125 -0.328125 C 6.445312 -0.109375 6.046875 0 5.609375 0 Z M 5.609375 0 "/>
      </g>
    </g>
  </g>
  <g fill="#fbb040" fill-opacity="1">
    <g transform="translate(130.391186, 132.079782)">
      <g>
        <path d="M 7.421875 -6.703125 L 7.125 -6.703125 L 7.125 -7.671875 L 3.046875 -7.96875 L 3.046875 -1.765625 L 5.296875 -1.921875 L 5.296875 -4.5625 L 4.4375 -4.5625 L 4.4375 -4.875 L 7.71875 -4.875 L 7.71875 0 L 3.046875 0 C 2.597656 0 2.1875 -0.109375 1.8125 -0.328125 C 1.445312 -0.546875 1.15625 -0.835938 0.9375 -1.203125 C 0.71875 -1.578125 0.609375 -1.988281 0.609375 -2.4375 L 0.609375 -7.3125 C 0.609375 -7.75 0.71875 -8.148438 0.9375 -8.515625 C 1.15625 -8.890625 1.445312 -9.1875 1.8125 -9.40625 C 2.1875 -9.632812 2.597656 -9.75 3.046875 -9.75 L 7.421875 -9.75 Z M 7.421875 -6.703125 "/>
      </g>
    </g>
  </g>
  <g fill="#fbb040" fill-opacity="1">
    <g transform="translate(149.561174, 132.079782)">
      <g>
        <path d="M 5.609375 0 L 0.90625 0 L 0.90625 -3.046875 L 1.21875 -3.046875 L 1.21875 -2.1875 L 5.609375 -1.875 L 5.609375 -3.953125 L 3.28125 -3.65625 L 3.046875 -3.65625 C 2.597656 -3.65625 2.1875 -3.765625 1.8125 -3.984375 C 1.445312 -4.203125 1.15625 -4.492188 0.9375 -4.859375 C 0.71875 -5.234375 0.609375 -5.644531 0.609375 -6.09375 L 0.609375 -7.3125 C 0.609375 -7.75 0.71875 -8.148438 0.9375 -8.515625 C 1.15625 -8.890625 1.445312 -9.1875 1.8125 -9.40625 C 2.1875 -9.632812 2.597656 -9.75 3.046875 -9.75 L 7.71875 -9.75 L 7.71875 -6.703125 L 7.421875 -6.703125 L 7.421875 -7.546875 L 3.046875 -7.84375 L 3.046875 -5.78125 L 5.359375 -6.09375 L 5.609375 -6.09375 C 6.046875 -6.09375 6.445312 -5.976562 6.8125 -5.75 C 7.1875 -5.53125 7.484375 -5.234375 7.703125 -4.859375 C 7.921875 -4.492188 8.03125 -4.09375 8.03125 -3.65625 L 8.03125 -2.4375 C 8.03125 -1.988281 7.921875 -1.578125 7.703125 -1.203125 C 7.484375 -0.835938 7.1875 -0.546875 6.8125 -0.328125 C 6.445312 -0.109375 6.046875 0 5.609375 0 Z M 5.609375 0 "/>
      </g>
    </g>
  </g>
  <path fill="#fbb040" d="M 264.804688 105.765625 C 270.4375 105.765625 275.003906 110.332031 275.003906 115.964844 C 275.003906 121.601562 270.4375 126.167969 264.804688 126.167969 C 259.167969 126.167969 254.601562 121.601562 254.601562 115.964844 C 254.601562 110.332031 259.167969 105.765625 264.804688 105.765625 Z M 264.804688 105.765625 " fill-opacity="1" fill-rule="nonzero"/>
  <g clip-path="url(#e1314db4f2)">
    <path fill="#fbb040" d="M 274.105469 277.820312 C 274.539062 288.589844 272.335938 299.589844 267.402344 310.792969 C 261.636719 313.027344 255.800781 315.027344 249.835938 316.761719 C 233.699219 321.527344 216.996094 324.59375 200.128906 325.894531 C 183.257812 327.195312 164.855469 328.726562 147.988281 326.527344 C 131.152344 324.328125 120.617188 322.5625 131.617188 326.292969 C 142.71875 330.0625 154.1875 332.796875 165.789062 334.460938 C 189.226562 337.796875 212.394531 335.894531 235.632812 331.960938 C 242.964844 330.726562 250.667969 329.695312 257.800781 327.496094 C 249.433594 341.730469 239.933594 350.03125 219.863281 363.097656 C 208.0625 365.5 195.859375 366.734375 183.359375 366.734375 C 82.445312 366.734375 0.601562 285.222656 0 184.441406 C 0.800781 185.707031 44.871094 256.652344 120.117188 282.121094 C 191.660156 306.390625 265.835938 280.820312 274.105469 277.820312 Z M 274.105469 277.820312 " fill-opacity="1" fill-rule="nonzero"/>
  </g>
  <g clip-path="url(#6a82bac5ed)">
    <path fill="#fbb040" d="M 332.980469 284.820312 C 338.210938 266.1875 336.847656 245.417969 327.511719 228.414062 C 320.609375 215.8125 309.84375 205.878906 300.109375 195.277344 C 290.371094 184.707031 282.871094 172.839844 284.171875 158.503906 C 285.773438 140.871094 336.847656 150.203125 358.347656 154.136719 C 360.75 154.570312 362.25 151.671875 360.550781 149.9375 C 354.949219 144.304688 343.582031 136.835938 325.34375 131.902344 C 320.476562 130.601562 316.675781 128.765625 313.941406 127.800781 C 312.042969 127.96875 309.34375 128.402344 306.410156 129.734375 C 301.472656 131.933594 298.539062 135.300781 297.140625 137.167969 C 297.972656 134.636719 299.875 130.132812 304.175781 126.367188 C 305.808594 124.933594 307.410156 123.933594 308.84375 123.167969 C 308.84375 123.167969 307.574219 120.734375 307.308594 119.265625 C 304.707031 105.296875 296.742188 92.296875 284.773438 84.695312 C 252.601562 64.226562 214.796875 91.796875 208.296875 125.167969 C 204.429688 145.003906 208.828125 170.875 220.730469 187.609375 C 232.398438 203.976562 246.132812 218.878906 258.070312 235.082031 C 267.769531 248.285156 272.539062 256.085938 273.402344 270.253906 C 266.96875 260.320312 224.597656 203.445312 154.789062 179.808594 C 79.3125 154.238281 0.898438 184.109375 0.0351562 184.441406 C 0.0351562 184.074219 0.0351562 183.742188 0.0351562 183.375 C 0.0351562 82.09375 82.109375 0.015625 183.390625 0.015625 C 284.671875 0.015625 366.75 82.09375 366.75 183.375 C 366.75 224.613281 353.113281 262.6875 330.144531 293.324219 C 331.210938 290.554688 332.179688 287.6875 332.980469 284.820312 Z M 332.980469 284.820312 " fill-opacity="1" fill-rule="nonzero"/>
  </g>
  <text style="fill: rgb(251, 176, 64); font-family: Arial, sans-serif; font-size: 140px; font-weight: 700; white-space: pre;" x="395.337" y="233.586" transform="matrix(1.473416, 0, 0, 1.745284, -200.167175, -134.273437)">SGS Connect</text>
</svg>