<?xml version="1.0" encoding="utf-8"?>
<svg viewBox="2.811 0 1437.189 63.769" version="1.1" xmlns="http://www.w3.org/2000/svg">
  <path d="M 0 25.801 L 30 29.116 C 60 32.43 120 39.059 180 37.954 C 240 36.849 300 28.011 360 23.591 C 420 19.172 480 19.172 540 21.381 C 600 23.591 660 28.011 720 26.906 C 780 25.801 840 19.172 900 15.857 C 960 12.542 1020 12.542 1080 14.752 C 1140 16.962 1200 21.381 1260 24.696 C 1320 28.011 1379.59 22.122 1440 26.906 C 1440.25 26.925 1441.94 72.204 1440 72.204 C 1415.86 72.204 14.645 72.204 0 72.204 L 0 25.801 Z" style="fill: rgba(48, 43, 34, 1)"/>
</svg>